<svg width="531" height="95" viewBox="0 0 531 95" fill="none" xmlns="http://www.w3.org/2000/svg">
<path d="M23.67 79C19.41 79 15.63 77.98 12.33 75.94C9.09 73.84 6.6 71.14 4.86 67.84C3.12 64.48 2.25 60.91 2.25 57.13C2.25 52.69 3.15 48.94 4.95 45.88C6.81 42.76 9.18 40.45 12.06 38.95C15 37.45 18.15 36.7 21.51 36.7C24.87 36.7 27.87 37.42 30.51 38.86C30.39 37.6 30.15 36.25 29.79 34.81C29.49 33.37 29.28 32.47 29.16 32.11C28.68 30.25 28.32 28.69 28.08 27.43C27.84 26.17 27.72 24.91 27.72 23.65C27.72 21.13 28.47 19.21 29.97 17.89C31.47 16.57 33.27 15.91 35.37 15.91C38.73 15.91 41.46 17.59 43.56 20.95C45.66 24.31 47.16 28.48 48.06 33.46C49.02 38.44 49.5 43.48 49.5 48.58C49.5 55.48 47.91 62.29 44.73 69.01C41.61 75.67 34.59 79 23.67 79ZM24.21 64.78C25.83 64.78 27.24 64.18 28.44 62.98C29.64 61.72 30.24 60.25 30.24 58.57C30.24 56.89 29.64 55.42 28.44 54.16C27.24 52.9 25.83 52.27 24.21 52.27C22.59 52.27 21.15 52.9 19.89 54.16C18.69 55.42 18.09 56.89 18.09 58.57C18.09 60.25 18.69 61.72 19.89 62.98C21.15 64.18 22.59 64.78 24.21 64.78ZM74.7598 79.09C70.4398 79.15 66.5698 78.25 63.1498 76.39C59.7898 74.53 57.1498 71.98 55.2298 68.74C53.3698 65.44 52.3798 61.78 52.2598 57.76C52.1998 53.74 53.1298 50.14 55.0498 46.96C56.9698 43.78 59.6398 41.26 63.0598 39.4C66.5398 37.54 70.4398 36.61 74.7598 36.61C78.9598 36.61 82.7398 37.51 86.0998 39.31C89.5198 41.11 92.2198 43.63 94.1998 46.87C96.1798 50.11 97.2298 53.74 97.3498 57.76C97.4098 61.66 96.4798 65.23 94.5598 68.47C92.6398 71.65 89.9398 74.2 86.4598 76.12C83.0398 78.04 79.1398 79.03 74.7598 79.09ZM75.0298 65.95C76.6498 65.95 78.0598 65.32 79.2598 64.06C80.4598 62.8 81.0598 61.33 81.0598 59.65C81.0598 57.97 80.4598 56.53 79.2598 55.33C78.0598 54.07 76.6498 53.44 75.0298 53.44C73.4098 53.44 71.9998 54.07 70.7998 55.33C69.5998 56.53 68.9998 57.97 68.9998 59.65C68.9998 61.33 69.5998 62.8 70.7998 64.06C71.9998 65.32 73.4098 65.95 75.0298 65.95ZM122.572 79.09C118.252 79.15 114.382 78.25 110.962 76.39C107.602 74.53 104.962 71.98 103.042 68.74C101.182 65.44 100.192 61.78 100.072 57.76C100.012 53.74 100.942 50.14 102.862 46.96C104.782 43.78 107.452 41.26 110.872 39.4C114.352 37.54 118.252 36.61 122.572 36.61C126.772 36.61 130.552 37.51 133.912 39.31C137.332 41.11 140.032 43.63 142.012 46.87C143.992 50.11 145.042 53.74 145.162 57.76C145.222 61.66 144.292 65.23 142.372 68.47C140.452 71.65 137.752 74.2 134.272 76.12C130.852 78.04 126.952 79.03 122.572 79.09ZM122.842 65.95C124.462 65.95 125.872 65.32 127.072 64.06C128.272 62.8 128.872 61.33 128.872 59.65C128.872 57.97 128.272 56.53 127.072 55.33C125.872 54.07 124.462 53.44 122.842 53.44C121.222 53.44 119.812 54.07 118.612 55.33C117.412 56.53 116.812 57.97 116.812 59.65C116.812 61.33 117.412 62.8 118.612 64.06C119.812 65.32 121.222 65.95 122.842 65.95ZM178.215 79C175.455 79 173.565 78.07 172.545 76.21C171.525 74.35 171.015 71.5 171.015 67.66C171.015 64.84 170.985 62.83 170.925 61.63C170.865 60.37 170.625 59.32 170.205 58.48C169.845 57.64 169.185 57.22 168.225 57.22C167.085 57.22 166.245 57.61 165.705 58.39C165.165 59.11 164.835 60.07 164.715 61.27C164.655 62.41 164.625 64.15 164.625 66.49C164.625 69.37 164.505 71.65 164.265 73.33C164.025 74.95 163.395 76.3 162.375 77.38C161.355 78.4 159.765 78.91 157.605 78.91C151.125 78.91 147.885 70.69 147.885 54.25C147.885 48.67 148.365 44.35 149.325 41.29C150.345 38.17 152.235 36.22 154.995 35.44C156.015 35.14 156.945 34.99 157.785 34.99C159.045 34.99 160.185 35.26 161.205 35.8C162.225 36.34 162.945 37.09 163.365 38.05C164.205 37.57 165.045 37.21 165.885 36.97C166.725 36.73 167.925 36.61 169.485 36.61C171.405 36.61 173.205 37.09 174.885 38.05C176.625 38.95 177.855 40.24 178.575 41.92C180.135 40.12 181.695 38.8 183.255 37.96C184.875 37.06 186.945 36.61 189.465 36.61C193.185 36.61 196.425 37.72 199.185 39.94C202.005 42.1 204.165 45.1 205.665 48.94C207.225 52.72 208.005 56.92 208.005 61.54C208.005 66.7 207.315 70.9 205.935 74.14C204.555 77.38 202.155 79 198.735 79C196.455 79 194.805 78.43 193.785 77.29C192.825 76.15 192.225 74.74 191.985 73.06C191.805 71.32 191.715 68.8 191.715 65.5C191.715 62.62 191.505 60.52 191.085 59.2C190.665 57.88 189.675 57.22 188.115 57.22C186.975 57.22 186.255 57.85 185.955 59.11C185.655 60.31 185.505 62.32 185.505 65.14C185.445 65.68 185.415 66.52 185.415 67.66C185.295 71.5 184.725 74.35 183.705 76.21C182.685 78.07 180.855 79 178.215 79ZM223.014 78.82C220.014 78.82 217.764 77.71 216.264 75.49C214.764 73.27 213.744 70 213.204 65.68C212.724 61.3 212.484 55.21 212.484 47.41C212.484 39.91 212.664 34.06 213.024 29.86C213.444 25.66 214.404 22.3 215.904 19.78C217.464 17.26 219.864 16 223.104 16C226.344 16 228.714 17.26 230.214 19.78C231.774 22.3 232.734 25.66 233.094 29.86C233.514 34.06 233.724 39.91 233.724 47.41C233.724 54.79 233.394 60.76 232.734 65.32C232.134 69.82 231.054 73.21 229.494 75.49C227.934 77.71 225.774 78.82 223.014 78.82ZM248.766 35.35C245.826 35.35 243.336 34.3 241.296 32.2C239.256 30.04 238.236 27.43 238.236 24.37C238.236 21.37 239.256 18.82 241.296 16.72C243.336 14.56 245.826 13.48 248.766 13.48C251.646 13.48 254.106 14.56 256.146 16.72C258.246 18.82 259.296 21.37 259.296 24.37C259.296 27.43 258.246 30.04 256.146 32.2C254.106 34.3 251.646 35.35 248.766 35.35ZM248.766 79C246.306 79 244.476 78.31 243.276 76.93C242.136 75.49 241.356 73.36 240.936 70.54C240.576 67.66 240.396 63.58 240.396 58.3C240.396 53.86 240.606 50.35 241.026 47.77C241.506 45.19 242.346 43.27 243.546 42.01C244.746 40.75 246.486 40.12 248.766 40.12C251.226 40.12 253.026 40.84 254.166 42.28C255.366 43.66 256.146 45.79 256.506 48.67C256.926 51.49 257.136 55.54 257.136 60.82C257.136 65.26 256.896 68.77 256.416 71.35C255.996 73.93 255.186 75.85 253.986 77.11C252.786 78.37 251.046 79 248.766 79ZM298.484 79C296.324 79 294.704 78.4 293.624 77.2C292.604 76 291.974 74.53 291.734 72.79C291.494 71.05 291.374 68.8 291.374 66.04C291.374 62.5 290.894 59.77 289.934 57.85C288.974 55.93 287.414 54.97 285.254 54.97C283.274 54.97 281.774 55.93 280.754 57.85C279.794 59.71 279.314 62.29 279.314 65.59C279.314 68.77 279.224 71.17 279.044 72.79C278.864 74.41 278.264 75.85 277.244 77.11C276.224 78.31 274.544 78.91 272.204 78.91C268.784 78.91 266.384 76.72 265.004 72.34C263.624 67.9 262.934 62.71 262.934 56.77C262.934 42.37 265.964 35.17 272.024 35.17C273.704 35.17 275.084 35.59 276.164 36.43C277.244 37.21 277.994 38.35 278.414 39.85C279.194 39.01 280.394 38.26 282.014 37.6C283.694 36.94 285.464 36.61 287.324 36.61C293.924 36.61 298.844 39.01 302.084 43.81C305.384 48.61 307.034 55.12 307.034 63.34C307.034 68.2 306.404 72.04 305.144 74.86C303.884 77.62 301.664 79 298.484 79ZM329.399 94.39C325.919 94.39 323.069 93.73 320.849 92.41C318.629 91.15 317.519 89.41 317.519 87.19C317.519 85.21 318.269 83.59 319.769 82.33C321.329 81.13 323.279 80.53 325.619 80.53C326.039 80.53 326.729 80.59 327.689 80.71C328.889 80.89 329.999 80.98 331.019 80.98C333.599 80.98 335.819 80.53 337.679 79.63C339.599 78.79 340.769 77.65 341.189 76.21C340.229 76.75 338.879 77.2 337.139 77.56C335.399 77.92 333.539 78.1 331.559 78.1C326.459 78.1 322.259 77.11 318.959 75.13C315.719 73.15 313.379 70.72 311.939 67.84C310.499 64.9 309.779 62.02 309.779 59.2C309.779 54.52 310.799 50.47 312.839 47.05C314.939 43.63 317.639 41.02 320.939 39.22C324.239 37.42 327.689 36.52 331.289 36.52C332.489 36.52 333.869 36.61 335.429 36.79C337.049 36.97 338.399 37.18 339.479 37.42C339.959 35.8 340.769 34.54 341.909 33.64C343.109 32.74 344.879 32.29 347.219 32.29C351.119 32.29 353.939 34.72 355.679 39.58C357.479 44.44 358.379 50.44 358.379 57.58C358.379 60.94 358.199 64.12 357.839 67.12C356.939 75.58 353.969 82.24 348.929 87.1C343.889 91.96 337.379 94.39 329.399 94.39ZM332.729 64.6C334.589 64.6 336.209 63.94 337.589 62.62C338.969 61.24 339.659 59.62 339.659 57.76C339.659 55.9 338.969 54.28 337.589 52.9C336.209 51.52 334.589 50.83 332.729 50.83C330.869 50.83 329.249 51.52 327.869 52.9C326.549 54.28 325.889 55.9 325.889 57.76C325.889 59.62 326.549 61.24 327.869 62.62C329.249 63.94 330.869 64.6 332.729 64.6ZM380.057 75.76C378.197 77.62 376.007 78.55 373.487 78.55C370.967 78.55 368.777 77.62 366.917 75.76C365.057 73.9 364.127 71.71 364.127 69.19C364.127 66.67 365.057 64.48 366.917 62.62C368.777 60.76 370.967 59.83 373.487 59.83C376.007 59.83 378.197 60.76 380.057 62.62C381.917 64.48 382.847 66.67 382.847 69.19C382.847 71.71 381.917 73.9 380.057 75.76ZM410.125 79C405.865 79 402.085 77.98 398.785 75.94C395.545 73.84 393.055 71.14 391.315 67.84C389.575 64.48 388.705 60.91 388.705 57.13C388.705 52.69 389.605 48.94 391.405 45.88C393.265 42.76 395.635 40.45 398.515 38.95C401.455 37.45 404.605 36.7 407.965 36.7C411.325 36.7 414.325 37.42 416.965 38.86C416.845 37.6 416.605 36.25 416.245 34.81C415.945 33.37 415.735 32.47 415.615 32.11C415.135 30.25 414.775 28.69 414.535 27.43C414.295 26.17 414.175 24.91 414.175 23.65C414.175 21.13 414.925 19.21 416.425 17.89C417.925 16.57 419.725 15.91 421.825 15.91C425.185 15.91 427.915 17.59 430.015 20.95C432.115 24.31 433.615 28.48 434.515 33.46C435.475 38.44 435.955 43.48 435.955 48.58C435.955 55.48 434.365 62.29 431.185 69.01C428.065 75.67 421.045 79 410.125 79ZM410.665 64.78C412.285 64.78 413.695 64.18 414.895 62.98C416.095 61.72 416.695 60.25 416.695 58.57C416.695 56.89 416.095 55.42 414.895 54.16C413.695 52.9 412.285 52.27 410.665 52.27C409.045 52.27 407.605 52.9 406.345 54.16C405.145 55.42 404.545 56.89 404.545 58.57C404.545 60.25 405.145 61.72 406.345 62.98C407.605 64.18 409.045 64.78 410.665 64.78ZM461.305 79C456.865 79 452.935 78.13 449.515 76.39C446.095 74.65 443.425 72.22 441.505 69.1C439.645 65.92 438.715 62.35 438.715 58.39C438.715 54.49 439.645 50.89 441.505 47.59C443.425 44.29 446.065 41.65 449.425 39.67C452.785 37.69 456.595 36.7 460.855 36.7C464.695 36.7 468.085 37.48 471.025 39.04C473.965 40.6 476.215 42.67 477.775 45.25C479.335 47.77 480.115 50.41 480.115 53.17C480.115 57.67 478.405 60.97 474.985 63.07C471.625 65.11 467.605 66.13 462.925 66.13C459.805 66.13 457.165 65.74 455.005 64.96C456.805 67.9 459.775 69.37 463.915 69.37C465.595 69.37 467.395 69.16 469.315 68.74C470.035 68.56 470.725 68.47 471.385 68.47C472.705 68.47 473.755 68.8 474.535 69.46C475.375 70.12 475.795 71.02 475.795 72.16C475.795 74.02 474.655 75.64 472.375 77.02C470.095 78.34 466.405 79 461.305 79ZM455.275 53.98C455.815 54.82 456.535 55.45 457.435 55.87C458.395 56.23 459.445 56.41 460.585 56.41C461.905 56.41 463.045 56.11 464.005 55.51C465.025 54.91 465.535 54.13 465.535 53.17C465.535 52.09 465.085 51.16 464.185 50.38C463.345 49.6 462.115 49.21 460.495 49.21C458.875 49.21 457.585 49.72 456.625 50.74C455.725 51.7 455.275 52.78 455.275 53.98ZM504.999 78.91C503.559 78.91 502.209 78.73 500.949 78.37C499.749 78.01 498.339 77.2 496.719 75.94C494.859 74.44 492.759 71.92 490.419 68.38C488.079 64.78 486.069 60.91 484.389 56.77C482.709 52.57 481.869 48.79 481.869 45.43C481.869 42.91 482.589 40.84 484.029 39.22C485.529 37.54 487.269 36.7 489.249 36.7C491.649 36.7 493.689 37.63 495.369 39.49C497.109 41.29 498.549 43.54 499.689 46.24C500.889 48.88 502.239 52.45 503.739 56.95C503.919 57.49 504.099 58.09 504.279 58.75C504.519 59.35 504.759 59.98 504.999 60.64L505.899 58.03C507.579 53.23 509.019 49.45 510.219 46.69C511.419 43.87 512.919 41.5 514.719 39.58C516.519 37.6 518.619 36.64 521.019 36.7C522.939 36.76 524.559 37.48 525.879 38.86C527.259 40.24 527.949 42.25 527.949 44.89C527.949 48.49 527.169 52.27 525.609 56.23C524.049 60.19 522.219 63.79 520.119 67.03C518.019 70.21 516.219 72.55 514.719 74.05C513.399 75.55 511.839 76.75 510.039 77.65C508.299 78.49 506.619 78.91 504.999 78.91Z" fill="white"/>
<rect x="110" y="45" width="24" height="27" rx="12" fill="white"/>
<ellipse cx="137.049" cy="73.7533" rx="5.69879" ry="7.06253" transform="rotate(156.402 137.049 73.7533)" fill="white"/>
<ellipse cx="127.049" cy="75.7533" rx="5.69879" ry="7.06253" transform="rotate(156.402 127.049 75.7533)" fill="white"/>
<ellipse cx="5.69879" cy="7.06252" rx="5.69879" ry="7.06252" transform="matrix(0.916376 0.400319 0.400319 -0.916376 100 77.9438)" fill="white"/>
<ellipse cx="5.69879" cy="7.06252" rx="5.69879" ry="7.06252" transform="matrix(0.916376 0.400319 0.400319 -0.916376 110 79.9438)" fill="white"/>
<circle cx="132" cy="59" r="5" fill="#1E1E1E"/>
<circle cx="112" cy="59" r="5" fill="#1E1E1E"/>
<path d="M120 65V65C121.155 66.8475 123.845 66.8475 125 65V65" stroke="#1E1E1E" stroke-width="2" stroke-linecap="round"/>
</svg>
